#!OML:ASF E:\inclinewalkrobotboard\Project 1\Capture day 1\Session 1\subject1.ASF
:FULLY-SPECIFIED
:DEGREES
49
root 6.95028 16.5893 35.9512 -172.766 1.55196 179.737
lowerback -7.78856 1.26399 -6.24256
upperback 2.17843 2.24109 1.57168
thorax 6.37627 0.823988 5.46787
lowerneck -8.41761 1.92386 -2.76937
upperneck 37.7514 -4.81343 7.3564
head 14.6926 -3.27692 2.40258
rclavicle 2.93207e-015 -4.57205e-015
rhumerus -42.3422 -31.8312 -69.3618
rradius 24.3514
rwrist 17.5967
rhand -17.5748 -36.0507
rfingers 7.12502
rthumb 8.68072 -65.8522
lclavicle 2.93207e-015 -4.57205e-015
lhumerus -29.2416 8.0823 85.6948
lradius 16.7122
lwrist -30.3622
lhand -25.2103 -22.8851
lfingers 7.12502
lthumb 1.30848 7.09063
rfemur -5.24795 1.57645 20.2913
rtibia 9.22681
rfoot -12.536 -4.69732
rtoes -31.0151
lfemur -8.77437 -10.3441 -19.7287
ltibia 16.7172
lfoot -19.9164 3.59858
ltoes -61.6639
50
root 6.95307 16.589 35.9544 -172.716 1.43133 179.747
lowerback -7.85109 1.18581 -6.21354
upperback 2.18764 2.1356 1.61188
thorax 6.43614 0.769673 5.48438
lowerneck -8.28483 2.01269 -2.91391
upperneck 37.7492 -4.72482 7.50478
head 14.6595 -3.25209 2.50361
rclavicle 4.12478e-015 -6.75868e-015
rhumerus -42.2394 -31.6592 -69.4752
rradius 24.3963
rwrist 17.2755
rhand -17.4631 -35.834
rfingers 7.12502
rthumb 8.78846 -65.631
lclavicle 4.12478e-015 -6.75868e-015
lhumerus -29.3917 8.83486 85.3107
lradius 16.329
lwrist -30.9901
lhand -25.2914 -22.9781
lfingers 7.12502
lthumb 1.23008 6.99806
rfemur -5.28441 1.36251 20.3046
rtibia 9.19926
rfoot -12.5037 -4.58814
rtoes -31.1562
lfemur -8.83252 -10.4289 -19.6952
ltibia 16.7126
lfoot -19.9213 3.38166
ltoes -61.2967
51
root 6.95729 16.5907 35.9596 -172.671 1.33311 179.814
lowerback -7.84553 1.15985 -6.13497
upperback 2.18645 2.09064 1.64515
thorax 6.439 0.750052 5.46947
lowerneck -8.31435 2.05245 -2.88402
upperneck 37.8189 -4.67125 7.46033
head 14.6937 -3.23183 2.48808
rclavicle 1.2424e-015 -7.7526e-015
rhumerus -42.104 -31.5709 -69.664
rradius 24.3982
rwrist 16.5695
rhand -16.9957 -35.809
rfingers 7.12502
rthumb 9.23948 -65.5865
lclavicle 1.2424e-015 -7.7526e-015
lhumerus -29.6036 9.15481 85.0515
lradius 16.1647
lwrist -31.1501
lhand -25.1238 -22.6592
lfingers 7.12502
lthumb 1.39203 7.31601
rfemur -5.34027 1.199 20.3956
rtibia 9.19431
rfoot -12.464 -4.48736
rtoes -31.3647
lfemur -8.85446 -10.4486 -19.5614
ltibia 16.6276
lfoot -19.8981 3.20909
ltoes -61.0209
52
root 6.96203 16.592 35.9654 -172.69 1.22546 179.743
lowerback -7.75344 1.19089 -6.17728
upperback 2.19313 2.13269 1.61573
thorax 6.38729 0.771693 5.46365
lowerneck -8.41268 2.01174 -2.87588
upperneck 37.8935 -4.76188 7.48821
head 14.7619 -3.26414 2.48593
rclavicle -1.62506e-014 2.24627e-014
rhumerus -42.044 -31.6141 -69.8238
rradius 24.4353
rwrist 15.7318
rhand -14.7116 -35.3128
rfingers 7.12502
rthumb 11.4429 -64.9805
lclavicle -1.62506e-014 2.24627e-014
lhumerus -29.7534 9.30769 84.8479
lradius 15.9782
lwrist -31.4086
lhand -25.1169 -22.3625
lfingers 7.12502
lthumb 1.3987 7.61269
rfemur -5.30647 1.07885 20.3273
rtibia 9.15684
rfoot -12.4515 -4.46836
rtoes -31.1148
lfemur -8.89537 -10.5343 -19.6239
ltibia 16.6659
lfoot -19.9118 3.29971
ltoes -61.1997
53
root 6.9651 16.5922 35.9694 -172.668 1.07923 179.683
lowerback -7.74749 1.21212 -6.19739
upperback 2.20856 2.16457 1.59253
thorax 6.39616 0.786336 5.45439
lowerneck -8.47562 1.95245 -2.90669
upperneck 37.9284 -4.88406 7.56425
head 14.8075 -3.30948 2.50614
rclavicle 1.01629e-014 -8.15017e-015
rhumerus -42.0222 -31.6982 -69.8589
rradius 24.5838
rwrist 15.3467
rhand -16.6453 -35.5009
rfingers 7.12502
rthumb 9.57763 -65.2632
lclavicle 1.01629e-014 -8.15017e-015
lhumerus -29.8248 9.63442 84.5989
lradius 15.702
lwrist -31.8984
lhand -25.2234 -22.4324
lfingers 7.12502
lthumb 1.29583 7.54339
rfemur -5.26715 0.964483 20.2664
rtibia 9.05963
rfoot -12.4517 -4.46425
rtoes -30.5303
lfemur -8.99532 -10.6269 -19.687
ltibia 16.7477
lfoot -19.9062 3.33925
ltoes -61.367
54
root 6.96815 16.5921 35.9743 -172.587 0.938546 179.692
lowerback -7.78544 1.19341 -6.16557
upperback 2.20545 2.1384 1.59499
thorax 6.41907 0.77376 5.43725
lowerneck -8.45783 1.91643 -2.87655
upperneck 37.908 -4.93984 7.55562
head 14.7978 -3.32883 2.48886
rclavicle 1.57537e-014 -5.1684e-015
rhumerus -41.913 -31.4463 -70.0869
rradius 24.8172
rwrist 14.8569
rhand -16.7294 -35.3505
rfingers 7.12502
rthumb 9.49643 -65.1165
lclavicle 1.57537e-014 -5.1684e-015
lhumerus -29.8978 10.2379 84.2341
lradius 15.4087
lwrist -32.5382
lhand -25.12 -22.4627
lfingers 7.12502
lthumb 1.39565 7.5125
rfemur -5.30504 0.843648 20.2907
rtibia 8.99144
rfoot -12.4584 -4.42998
rtoes -30.6021
lfemur -9.1604 -10.6949 -19.6427
ltibia 16.8429
lfoot -19.9891 3.03927
ltoes -61.0682
55
root 6.97353 16.5909 35.9787 -172.568 0.883852 179.658
lowerback -7.75634 1.15773 -6.23569
upperback 2.21396 2.09563 1.60883
thorax 6.41501 0.749595 5.48574
lowerneck -8.38683 1.89739 -2.81462
upperneck 37.7829 -4.89215 7.4479
head 14.7113 -3.30461 2.43938
rclavicle 1.27222e-014 -1.15295e-014
rhumerus -41.7445 -30.9641 -70.4498
rradius 25.0717
rwrist 14.2624
rhand -16.4222 -35.3554
rfingers 7.12502
rthumb 9.79286 -65.1077
lclavicle 1.27222e-014 -1.15295e-014
lhumerus -29.9971 11 83.8436
lradius 15.1386
lwrist -33.184
lhand -25.0249 -22.2801
lfingers 7.12502
lthumb 1.48752 7.69443
rfemur -5.31832 0.746695 20.2763
rtibia 8.97267
rfoot -12.4653 -4.41333
rtoes -31.2878
lfemur -9.23138 -10.6968 -19.6458
ltibia 16.8804
lfoot -20.0823 2.81116
ltoes -60.871
